HIERARCHY
ROOT Hips
{
	OFFSET 0.000000 0.000000 0.000000
	CHANNELS 6 Xposition Yposition Zposition Zrotation Yrotation Xrotation 
	JOINT LHipJoint
	{
		OFFSET 0.000000 0.000000 0.000000
		CHANNELS 3 Zrotation Yrotation Xrotation
		JOINT LeftUpLeg
		{
			OFFSET 1.363060 -1.794630 0.839290
			CHANNELS 3 Zrotation Yrotation Xrotation
			JOINT LeftLeg
			{
				OFFSET 2.448110 -6.726130 0.000000
				CHANNELS 3 Zrotation Yrotation Xrotation
				JOINT LeftFoot
				{
					OFFSET 2.562200 -7.039590 0.000000
					CHANNELS 3 Zrotation Yrotation Xrotation
					JOINT LeftToeBase
					{
						OFFSET 0.157640 -0.433110 2.322550
						CHANNELS 3 Zrotation Yrotation Xrotation
						End Site
						{
							OFFSET 0.000000 0.000000 0.000000
						}
					}
				}
			}
		}
	}
	JOINT RHipJoint
	{
		OFFSET 0.000000 0.000000 0.000000
		CHANNELS 3 Zrotation Yrotation Xrotation
		JOINT RightUpLeg
		{
			OFFSET -1.305520 -1.794630 0.839290
			CHANNELS 3 Zrotation Yrotation Xrotation
			JOINT RightLeg
			{
				OFFSET -2.542530 -6.985550 0.000000
				CHANNELS 3 Zrotation Yrotation Xrotation
				JOINT RightFoot
				{
					OFFSET -2.568260 -7.056230 0.000000
					CHANNELS 3 Zrotation Yrotation Xrotation
					JOINT RightToeBase
					{
						OFFSET -0.164730 -0.452590 2.363150
						CHANNELS 3 Zrotation Yrotation Xrotation
						End Site
						{
							OFFSET 0.000000 0.000000 0.000000
						}
					}
				}
			}
		}
	}
}
MOTION
Frames: 27
Frame Time: 0.008333
26.564204 17.572087 2.136903 154.141831 -80.594805 -128.546110 -8.939156 -1.076983 4.320795 -8.167493 -6.903337 -64.901483 1.410001 3.338826 69.853709 2.332542 11.797037 -3.750362 1.174401 0.000000 -28.185100 12.313860 -4.575375 3.190729 -1.229586 -3.564267 -4.194032 1.145755 -0.363043 1.976437 0.295898 6.856961 23.757393 3.323600 -0.000001 -74.377100
26.318343 17.715274 2.139518 151.657340 -80.775163 -126.280643 -8.708960 -0.797861 4.621238 -8.808316 -7.513587 -63.923909 1.204989 3.088871 66.568219 2.237739 11.372860 -2.147853 1.476800 -0.000000 -30.031300 12.647738 -4.716557 3.052790 -1.873989 -5.317154 -3.413988 1.084906 -0.390814 0.640640 0.170905 7.571343 27.243335 4.141200 -0.000000 -71.227899
26.074888 17.850041 2.144998 149.423507 -80.967630 -124.278459 -8.514132 -0.513960 4.918983 -9.339978 -8.062439 -62.863036 1.007754 2.853678 63.167431 2.119902 10.869104 -0.401007 1.772099 0.000000 -31.935800 12.925555 -4.826894 2.895407 -2.436139 -6.986224 -2.748230 1.031234 -0.414978 -0.126196 0.036728 7.888401 29.794513 4.664100 0.000000 -67.744000
25.834506 17.975503 2.153334 147.467087 -81.180453 -122.555154 -8.358865 -0.234222 5.204821 -9.753761 -8.542883 -61.731553 0.814781 2.634173 59.672168 1.978196 10.275621 1.448393 2.038800 0.000000 -33.775599 13.138281 -4.917894 2.735572 -2.901775 -8.432792 -2.139152 0.970976 -0.440021 -0.383346 -0.100787 7.616694 31.451055 4.730700 -0.000000 -64.337600
25.597586 18.090827 2.164003 145.730389 -81.406641 -121.053107 -8.235999 0.039092 5.472658 -10.072929 -8.965352 -60.526843 0.621170 2.428262 56.099418 1.817231 9.611051 3.340172 2.259200 -0.000000 -35.419599 13.295416 -4.991052 2.576623 -3.292943 -9.621867 -1.577549 0.894469 -0.473027 -0.114960 -0.236099 6.762135 32.241780 4.324800 -0.000000 -61.212700
25.363917 18.195281 2.177110 144.253025 -81.650849 -119.805332 -8.146465 0.298657 5.719745 -10.292447 -9.329887 -59.264857 0.423999 2.234097 52.477400 1.643727 8.900702 5.204515 2.420800 -0.000000 -36.815301 13.395098 -5.050277 2.428024 -3.593484 -10.497444 -1.049820 0.796664 -0.516910 0.656573 -0.370991 5.378702 32.257959 3.501900 0.000000 -58.472000
25.133354 18.288691 2.193108 143.157249 -81.940501 -118.928289 -8.101912 0.528052 5.930556 -10.377479 -9.611779 -57.956283 0.222328 2.049813 48.849654 1.463774 8.159558 6.950572 2.511100 -0.000000 -37.883301 13.417968 -5.110530 2.312675 -3.723754 -10.880040 -0.432471 0.667731 -0.567819 1.712232 -0.525369 3.409264 31.779459 2.283500 0.000000 -56.463999
24.905651 18.370228 2.210906 142.296087 -82.243600 -118.287121 -8.078951 0.736670 6.118804 -10.388589 -9.855111 -56.598677 0.013412 1.868351 45.232438 1.291269 7.466526 8.515601 2.551200 0.000000 -38.664400 13.401520 -5.151014 2.203097 -3.767743 -11.009188 0.125479 0.523407 -0.634138 3.278567 -0.682938 1.315067 30.745170 0.993001 -0.000000 -54.788100
24.680071 18.440008 2.231264 141.831938 -82.595762 -118.038293 -8.093752 0.907003 6.274053 -10.279346 -10.030067 -55.216241 -0.198142 1.687150 41.683385 1.132107 6.838141 9.824689 2.546700 0.000000 -39.178200 13.323038 -5.188772 2.116205 -3.630060 -10.771044 0.721690 0.365732 -0.711514 5.139355 -0.860690 -0.912432 29.474499 -0.326900 -0.000000 -53.793301
24.456339 18.497527 2.252967 141.602577 -82.964401 -118.033235 -8.123814 1.049759 6.408816 -10.110458 -10.177951 -53.804698 -0.412058 1.500786 38.220919 0.997431 6.348249 10.845077 2.534000 -0.000000 -39.494199 13.218467 -5.211087 2.023997 -3.404528 -10.406935 1.243265 0.213706 -0.807756 7.422150 -1.037797 -2.901089 28.006714 -1.434800 -0.000000 -53.252001
24.233713 18.542794 2.276239 141.645130 -83.357504 -118.311347 -8.172989 1.159830 6.523958 -9.877160 -10.294049 -52.386558 -0.621455 1.307709 34.893476 0.892391 6.021324 11.556022 2.532400 0.000000 -39.688500 13.086954 -5.226782 1.920989 -3.085957 -9.984154 1.682406 0.079536 -0.925378 10.068653 -1.204152 -4.541569 26.504945 -2.271700 -0.000000 -53.164100
24.011429 18.575887 2.300099 141.871420 -83.764494 -118.785613 -8.232187 1.242343 6.621449 -9.615263 -10.381574 -50.975252 -0.822608 1.107881 31.731955 0.819401 5.872650 11.970919 2.559001 -0.000000 -39.804400 12.943888 -5.242627 1.805395 -2.713038 -9.577578 2.034705 -0.034049 -1.064773 12.986203 -1.351245 -5.782810 25.145574 -2.834799 -0.000000 -53.783700
23.789564 18.596668 2.323961 142.168897 -84.163764 -119.343864 -8.291204 1.305178 6.708489 -9.364731 -10.454803 -49.590333 -1.011177 0.902850 28.763117 0.780856 5.917794 12.135033 2.629600 0.000001 -39.918300 12.808685 -5.258984 1.666671 -2.362880 -9.314433 2.234099 -0.121155 -1.229018 16.209380 -1.458024 -6.504989 23.921935 -3.084900 -0.000000 -54.759100
23.567533 18.605197 2.347036 142.449595 -84.543640 -119.886798 -8.344077 1.355239 6.787757 -9.158173 -10.507450 -48.262174 -1.184066 0.696790 26.015017 0.773988 6.136863 12.112949 2.744100 -0.000000 -40.073000 12.693114 -5.280712 1.512575 -2.074338 -9.215426 2.263979 -0.187771 -1.414691 19.678271 -1.521424 -6.747481 22.874780 -3.074800 0.000000 -56.017600
23.345386 18.602139 2.369515 142.778549 -84.926409 -120.489804 -8.404754 1.388790 6.839464 -9.003358 -10.468206 -47.011718 -1.337303 0.499720 23.555902 0.785975 6.431178 11.945358 2.865900 0.000000 -40.195400 12.583702 -5.317378 1.354615 -1.804139 -9.216502 2.200744 -0.243664 -1.613911 23.239341 -1.555472 -6.682511 22.084055 -2.923200 0.000000 -57.704500
23.122954 18.587093 2.389547 142.857355 -85.264090 -120.830446 -8.445617 1.427164 6.883370 -8.965175 -10.385050 -45.862743 -1.475844 0.314244 21.362912 0.816003 6.818060 11.745666 3.014299 -0.000000 -40.414700 12.517966 -5.357890 1.197822 -1.663973 -9.374065 1.951147 -0.296401 -1.824590 26.974313 -1.555770 -6.286234 21.396284 -2.618300 0.000000 -59.213000
22.900676 18.560695 2.407277 142.755495 -85.579374 -120.989278 -8.480647 1.467681 6.898837 -9.045794 -10.184114 -44.828335 -1.600646 0.151339 19.497928 0.847016 7.181195 11.543277 3.146900 0.000001 -40.626500 12.480458 -5.407416 1.053989 -1.593756 -9.599890 1.598543 -0.355266 -2.038977 30.757313 -1.543817 -5.764653 20.837697 -2.273200 0.000001 -60.661300
22.678844 18.523240 2.422506 142.434151 -85.876614 -120.942715 -8.512039 1.513575 6.871413 -9.263712 -9.822899 -43.903352 -1.716478 0.019768 18.002658 0.864774 7.431832 11.354127 3.232200 0.000000 -40.702400 12.468873 -5.464611 0.925015 -1.581311 -9.859581 1.198670 -0.425955 -2.253030 34.526874 -1.532725 -5.247046 20.373124 -1.948100 -0.000000 -62.016700
22.457116 18.474208 2.433913 141.718827 -86.113630 -120.461577 -8.515388 1.581480 6.843132 -9.610630 -9.410878 -43.119511 -1.825593 -0.087044 16.785631 0.878015 7.659773 11.288882 3.322700 0.000000 -41.016000 12.509086 -5.519687 0.828834 -1.675015 -10.127965 0.636780 -0.514493 -2.465555 38.377373 -1.525815 -4.779083 19.867043 -1.653700 0.000000 -62.830500
22.236526 18.414291 2.442522 140.742920 -86.325701 -119.733274 -8.510825 1.661017 6.776255 -10.072732 -8.863283 -42.429584 -1.929602 -0.158797 15.928497 0.869507 7.730729 11.253145 3.354000 -0.000000 -41.228400 12.574040 -5.577350 0.752445 -1.807945 -10.366539 0.072884 -0.621415 -2.674265 42.162324 -1.536633 -4.504170 19.375546 -1.456900 -0.000000 -63.470499
22.017191 18.343302 2.448334 139.512593 -86.501256 -118.761838 -8.493197 1.753613 6.677085 -10.632243 -8.215019 -41.816851 -2.029551 -0.197973 15.412458 0.841436 7.653570 11.204583 3.324700 0.000000 -41.289699 12.665002 -5.634210 0.693660 -1.989001 -10.563145 -0.485266 -0.747434 -2.880242 45.885266 -1.566649 -4.452221 18.856441 -1.362700 -0.000000 -63.894300
21.798981 18.260885 2.452055 138.170134 -86.639812 -117.656830 -8.463686 1.857542 6.571879 -11.233514 -7.536815 -41.309736 -2.120328 -0.210710 15.204808 0.803276 7.478701 11.105292 3.250700 -0.000000 -41.322400 12.776005 -5.691178 0.661045 -2.192515 -10.692764 -1.086776 -0.892307 -3.083863 49.575472 -1.615008 -4.631286 18.272273 -1.366800 -0.000000 -63.997300
21.582610 18.167076 2.454024 136.695185 -86.738700 -116.421566 -8.420485 1.967380 6.454543 -11.861027 -6.857768 -40.858904 -2.201132 -0.200335 15.305455 0.760268 7.217229 10.840631 3.122000 0.000000 -41.182800 12.902958 -5.744928 0.637805 -2.435306 -10.771249 -1.670106 -1.054797 -3.287197 53.195188 -1.678657 -5.011042 17.628318 -1.450200 -0.000000 -63.891700
21.368218 18.061582 2.455175 135.189256 -86.802919 -115.139465 -8.366520 2.077114 6.339447 -12.477565 -6.228951 -40.482990 -2.268441 -0.172057 15.714952 0.721678 6.905640 10.309025 2.943200 0.000000 -40.836600 13.038241 -5.796656 0.623734 -2.703388 -10.796359 -2.258237 -1.233838 -3.491417 56.758038 -1.752054 -5.539353 16.912287 -1.584600 0.000001 -63.562800
21.155966 17.944309 2.455893 133.599406 -86.826662 -113.747344 -8.296603 2.183099 6.240816 -13.062977 -5.724560 -40.174331 -2.319925 -0.132701 16.410962 0.701070 6.615306 9.430166 2.733800 0.000000 -40.367100 13.182459 -5.842540 0.611384 -3.015566 -10.783364 -2.861768 -1.429397 -3.697907 60.271251 -1.827147 -6.133802 16.116698 -1.731200 0.000000 -63.026599
20.946099 17.815235 2.457292 132.004251 -86.828213 -112.311406 -8.219174 2.277010 6.161778 -13.600492 -5.351195 -39.982893 -2.355227 -0.081441 17.453584 0.702700 6.336135 8.081202 2.478200 0.000000 -39.586301 13.324223 -5.886050 0.601832 -3.343759 -10.735069 -3.504293 -1.641153 -3.906919 63.745255 -1.896167 -6.722602 15.239721 -1.859100 -0.000000 -62.323200
20.739138 17.674623 2.459453 130.253619 -86.799923 -110.668992 -8.126687 2.358035 6.115090 -14.089027 -5.176889 -39.911285 -2.374076 -0.021910 18.825443 0.741217 6.141474 6.233398 2.195100 0.000000 -38.652299 13.468775 -5.921261 0.589012 -3.714557 -10.671321 -4.207316 -1.870808 -4.118784 67.192283 -1.949496 -7.213421 14.273992 -1.932100 0.000000 -61.482700
